<svg width="130" height="130" viewBox="0 0 130 130" fill="none" xmlns="http://www.w3.org/2000/svg">
<path d="M110.96 16.25H89.3371L92.0454 43.3333C92.0454 43.3333 97.4621 48.75 105.587 48.75C109.852 48.7556 113.973 47.203 117.173 44.3842C117.512 44.068 117.764 43.6708 117.906 43.2301C118.048 42.7894 118.076 42.3197 117.986 41.8654L114.162 18.9583C114.034 18.2016 113.642 17.5145 113.056 17.0188C112.47 16.5231 111.728 16.2508 110.96 16.25V16.25Z" stroke="black" stroke-width="1.5"/>
<path d="M89.3371 16.25L92.0454 43.3333C92.0454 43.3333 86.6288 48.75 78.5038 48.75C70.3788 48.75 64.9621 43.3333 64.9621 43.3333V16.25H89.3371Z" stroke="black" stroke-width="1.5"/>
<path d="M64.9621 16.25V43.3333C64.9621 43.3333 59.5454 48.75 51.4204 48.75C43.2954 48.75 37.8788 43.3333 37.8788 43.3333L40.5871 16.25H64.9621Z" stroke="black" stroke-width="1.5"/>
<path d="M40.5871 16.25H18.9692C18.2 16.2497 17.4556 16.5223 16.8685 17.0192C16.2813 17.5161 15.8894 18.2051 15.7625 18.9638L11.9438 41.8708C11.8545 42.3251 11.8822 42.7946 12.0244 43.2353C12.1665 43.6759 12.4184 44.0731 12.7563 44.3896C14.5329 45.9604 18.5033 48.7554 24.3371 48.7554C32.4621 48.7554 37.8788 43.3388 37.8788 43.3388L40.5871 16.2554V16.25Z" stroke="black" stroke-width="1.5"/>
<path d="M16.25 48.75V102.917C16.25 105.79 17.3914 108.545 19.423 110.577C21.4547 112.609 24.2102 113.75 27.0833 113.75H102.917C105.79 113.75 108.545 112.609 110.577 110.577C112.609 108.545 113.75 105.79 113.75 102.917V48.75" stroke="black" stroke-width="1.5"/>
<path d="M80.3454 113.75V81.2501C80.3454 78.3769 79.204 75.6214 77.1724 73.5898C75.1408 71.5581 72.3853 70.4167 69.5121 70.4167H58.6788C55.8056 70.4167 53.0501 71.5581 51.0184 73.5898C48.9868 75.6214 47.8454 78.3769 47.8454 81.2501V113.75" stroke="black" stroke-width="1.5" stroke-miterlimit="16"/>
</svg>
