<svg width="254" height="237" viewBox="0 0 254 237" fill="none" xmlns="http://www.w3.org/2000/svg">
<path d="M47.1488 5.53C48.6392 3.79571 50.4894 2.40335 52.5722 1.44872C54.6549 0.494091 56.9208 -0.00015011 59.2138 3.41988e-08H194.786C197.079 -0.00015011 199.345 0.494091 201.428 1.44872C203.511 2.40335 205.361 3.79571 206.851 5.53L248.269 53.6252C251.967 57.9201 254 63.3898 254 69.046V73.075C254.001 80.8956 251.547 88.5211 246.98 94.8857C242.414 101.25 235.964 106.036 228.531 108.574C221.099 111.111 213.055 111.274 205.525 109.04C197.995 106.806 191.354 102.286 186.531 96.1114C183.009 100.627 178.496 104.28 173.336 106.791C168.177 109.302 162.509 110.605 156.766 110.6C151.022 110.606 145.353 109.304 140.194 106.793C135.034 104.281 130.521 100.627 127 96.1114C123.479 100.627 118.966 104.281 113.806 106.793C108.647 109.304 102.978 110.606 97.2344 110.6C91.4909 110.606 85.8222 109.304 80.6627 106.793C75.5032 104.281 70.99 100.627 67.4688 96.1114C62.6458 102.286 56.0051 106.806 48.4749 109.04C40.9447 111.274 32.9012 111.111 25.4686 108.574C18.0361 106.036 11.5859 101.25 7.01964 94.8857C2.45335 88.5211 -0.000866752 80.8956 2.29625e-07 73.075V69.046C0.000200145 63.3898 2.0329 57.9201 5.73088 53.6252L47.1646 5.5142L47.1488 5.53ZM75.4062 73.075C75.4063 78.8368 77.706 84.3627 81.7996 88.4369C85.8931 92.5111 91.4452 94.8 97.2344 94.8C103.024 94.8 108.576 92.5111 112.669 88.4369C116.763 84.3627 119.063 78.8368 119.062 73.075C119.062 70.9798 119.899 68.9704 121.387 67.4889C122.876 66.0073 124.895 65.175 127 65.175C129.105 65.175 131.124 66.0073 132.613 67.4889C134.101 68.9704 134.938 70.9798 134.938 73.075C134.938 78.8368 137.237 84.3627 141.331 88.4369C145.424 92.5111 150.976 94.8 156.766 94.8C162.555 94.8 168.107 92.5111 172.2 88.4369C176.294 84.3627 178.594 78.8368 178.594 73.075C178.594 70.9798 179.43 68.9704 180.919 67.4889C182.407 66.0073 184.426 65.175 186.531 65.175C188.636 65.175 190.655 66.0073 192.144 67.4889C193.632 68.9704 194.469 70.9798 194.469 73.075C194.469 78.8368 196.768 84.3627 200.862 88.4369C204.956 92.5111 210.508 94.8 216.297 94.8C222.086 94.8 227.638 92.5111 231.732 88.4369C235.825 84.3627 238.125 78.8368 238.125 73.075V69.046C238.125 67.1631 237.45 65.342 236.22 63.911L194.786 15.8H59.2138L17.78 63.911C16.5504 65.342 15.8749 67.1631 15.875 69.046V73.075C15.875 78.8368 18.1747 84.3627 22.2683 88.4369C26.3619 92.5111 31.9139 94.8 37.7031 94.8C43.4923 94.8 49.0444 92.5111 53.1379 88.4369C57.2315 84.3627 59.5312 78.8368 59.5312 73.075C59.5312 70.9798 60.3675 68.9704 61.8561 67.4889C63.3447 66.0073 65.3636 65.175 67.4688 65.175C69.5739 65.175 71.5928 66.0073 73.0814 67.4889C74.57 68.9704 75.4062 70.9798 75.4062 73.075V73.075ZM23.8125 118.5C25.9177 118.5 27.9366 119.332 29.4252 120.814C30.9137 122.295 31.75 124.305 31.75 126.4V221.2H222.25V126.4C222.25 124.305 223.086 122.295 224.575 120.814C226.063 119.332 228.082 118.5 230.188 118.5C232.293 118.5 234.312 119.332 235.8 120.814C237.289 122.295 238.125 124.305 238.125 126.4V221.2H246.062C248.168 221.2 250.187 222.032 251.675 223.514C253.164 224.995 254 227.005 254 229.1C254 231.195 253.164 233.205 251.675 234.686C250.187 236.168 248.168 237 246.062 237H7.9375C5.83234 237 3.81341 236.168 2.32484 234.686C0.83627 233.205 2.29625e-07 231.195 2.29625e-07 229.1C2.29625e-07 227.005 0.83627 224.995 2.32484 223.514C3.81341 222.032 5.83234 221.2 7.9375 221.2H15.875V126.4C15.875 124.305 16.7113 122.295 18.1998 120.814C19.6884 119.332 21.7073 118.5 23.8125 118.5V118.5ZM55.5625 126.4C57.6677 126.4 59.6866 127.232 61.1752 128.714C62.6637 130.195 63.5 132.205 63.5 134.3V189.6H190.5V134.3C190.5 132.205 191.336 130.195 192.825 128.714C194.313 127.232 196.332 126.4 198.438 126.4C200.543 126.4 202.562 127.232 204.05 128.714C205.539 130.195 206.375 132.205 206.375 134.3V189.6C206.375 193.79 204.702 197.809 201.725 200.772C198.748 203.735 194.71 205.4 190.5 205.4H63.5C59.2897 205.4 55.2518 203.735 52.2747 200.772C49.2975 197.809 47.625 193.79 47.625 189.6V134.3C47.625 132.205 48.4613 130.195 49.9498 128.714C51.4384 127.232 53.4573 126.4 55.5625 126.4Z" fill="black"/>
</svg>
